<?xml version="1.0" encoding="utf-8"?>
<!-- Generator: Adobe Illustrator 24.0.3, SVG Export Plug-In . SVG Version: 6.00 Build 0)  -->
<svg version="1.1" id="Layer_1" xmlns="http://www.w3.org/2000/svg" xmlns:xlink="http://www.w3.org/1999/xlink" x="0px" y="0px"
	 viewBox="0 0 670 144" style="enable-background:new 0 0 670 144;" xml:space="preserve">
<style type="text/css">
	.st0{fill:#504FA5;}
	.st1{fill:#7F7FFF;}
	.st2{fill:#FFFFFF;}
</style>
<g>
	<g>
		<path class="st0" d="M130.7,19.8c1.5,3.1,2.4,6.7,2.4,10.6L133,82.6c0,13.4-10.1,25.6-22.5,27.4l-43,6.7l-4.6,0.7l-15.7,14.2
			l33.2-4.7l16.6-2.6l16.4,15.4c0.9,0.8,2.1,1.2,3.2,1.2c0.9,0,1.9-0.3,2.7-0.8c1.8-1.2,2.7-3.5,2.1-5.7l-3.3-12.8l-0.2-0.6l5.5-0.9
			c12.4-1.7,22.5-14,22.5-27.4l0.1-52.2C146,29.9,139.6,21.7,130.7,19.8z"/>
		<path class="st1" d="M102.8,3.3L24.6,14.9c-12.4,1.7-22.5,14-22.5,27.4L2,94.5c0,13.4,10,22.8,22.4,21.1l5.4-0.8l-3.3,12.8
			c-0.6,2.2,0.3,4.5,2.1,5.7c0.8,0.5,1.8,0.8,2.7,0.8c1.1,0,2.3-0.4,3.2-1.2l25.1-22.3l43-6.7c12.4-1.7,22.5-14,22.5-27.4l0.1-52.2
			C125.3,11,115.2,1.5,102.8,3.3z"/>
		<g>
			<path class="st2" d="M57.2,90.1c-0.5,0-0.9-0.1-1.3-0.3c-1.1-0.6-1.7-1.9-1.4-3.1l7-16.1L47.5,58c-1-1.1-0.9-2.7,0.1-3.8L67.9,33
				c0.9-0.9,2.3-1.1,3.4-0.5c1.1,0.6,1.7,1.9,1.4,3.1l-7,16l14,12.5c1,1.1,0.9,2.7-0.1,3.8L59.2,89.2C58.7,89.8,58,90.1,57.2,90.1z"
				/>
		</g>
	</g>
	<g>
		<path class="st1" d="M199.3,101.6c-4.2-1.3-7.6-3-10-5.1L193,88c2.4,1.9,5.4,3.5,8.8,4.7c3.5,1.2,7,1.8,10.5,1.8
			c4.4,0,7.6-0.7,9.8-2.1c2.2-1.4,3.2-3.2,3.2-5.5c0-1.7-0.6-3.1-1.8-4.2c-1.2-1.1-2.7-1.9-4.6-2.6c-1.8-0.6-4.4-1.3-7.5-2.1
			c-4.5-1.1-8.1-2.1-10.9-3.2c-2.8-1.1-5.1-2.7-7.1-5c-2-2.3-3-5.3-3-9.2c0-3.2,0.9-6.2,2.6-8.8c1.8-2.7,4.4-4.8,8-6.3
			c3.5-1.6,7.9-2.3,13-2.3c3.6,0,7.1,0.4,10.6,1.3c3.5,0.9,6.5,2.2,9,3.9l-3.4,8.5c-2.6-1.5-5.3-2.7-8.1-3.4
			c-2.8-0.8-5.5-1.2-8.1-1.2c-4.3,0-7.5,0.7-9.6,2.2c-2.1,1.5-3.1,3.4-3.1,5.8c0,1.7,0.6,3,1.8,4.1c1.2,1.1,2.7,1.9,4.6,2.5
			c1.8,0.6,4.4,1.3,7.5,2.1c4.4,1,7.9,2.1,10.7,3.1c2.8,1.1,5.2,2.8,7.2,5c2,2.2,3,5.3,3,9.1c0,3.2-0.9,6.2-2.6,8.8
			c-1.8,2.6-4.4,4.7-8,6.3c-3.6,1.6-7.9,2.3-13.1,2.3C207.9,103.5,203.5,102.9,199.3,101.6z"/>
		<path class="st1" d="M287.9,83.7h-35.1c0.6,3.3,2.2,5.9,4.8,7.8c2.6,1.9,5.8,2.9,9.7,2.9c4.9,0,9-1.6,12.2-4.9L285,96
			c-2,2.4-4.6,4.2-7.6,5.5c-3.1,1.2-6.5,1.8-10.4,1.8c-4.9,0-9.3-1-13-2.9c-3.7-2-6.6-4.7-8.7-8.2c-2-3.5-3.1-7.4-3.1-11.9
			c0-4.4,1-8.3,3-11.8c2-3.5,4.7-6.2,8.3-8.2c3.5-2,7.5-2.9,11.9-2.9c4.4,0,8.3,1,11.7,2.9c3.4,1.9,6.1,4.6,8.1,8.1
			c1.9,3.5,2.9,7.5,2.9,12.1C288,81.3,288,82.3,287.9,83.7z M256.9,68.8c-2.3,2-3.7,4.6-4.2,7.9H278c-0.4-3.2-1.8-5.9-4.1-7.9
			c-2.3-2-5.1-3-8.6-3C262,65.8,259.2,66.8,256.9,68.8z"/>
		<path class="st1" d="M337.1,62.4c3.4,3.3,5.1,8.2,5.1,14.7v25.7h-10.5V78.4c0-3.9-0.9-6.9-2.8-8.8c-1.8-2-4.5-3-7.9-3
			c-3.9,0-6.9,1.2-9.1,3.5c-2.2,2.3-3.4,5.7-3.4,10v22.6h-10.5V57.9h10v5.8c1.7-2.1,3.9-3.6,6.5-4.7c2.6-1.1,5.6-1.6,8.9-1.6
			C329.1,57.4,333.7,59.1,337.1,62.4z"/>
		<path class="st1" d="M358.7,101.9c-3.5-1-6.2-2.2-8.3-3.6l4-8c2,1.3,4.4,2.4,7.3,3.2c2.8,0.8,5.6,1.2,8.3,1.2
			c6.3,0,9.4-1.6,9.4-4.9c0-1.6-0.8-2.7-2.4-3.3c-1.6-0.6-4.2-1.2-7.7-1.8c-3.7-0.6-6.7-1.2-9-1.9c-2.3-0.7-4.3-2-6-3.8
			c-1.7-1.8-2.6-4.3-2.6-7.6c0-4.2,1.8-7.6,5.3-10.2c3.5-2.5,8.3-3.8,14.4-3.8c3.1,0,6.1,0.3,9.2,1c3.1,0.7,5.6,1.6,7.5,2.8l-4,8
			c-3.8-2.2-8.1-3.4-12.8-3.4c-3.1,0-5.4,0.5-7,1.4c-1.6,0.9-2.4,2.1-2.4,3.6c0,1.7,0.9,2.9,2.6,3.6c1.7,0.7,4.3,1.4,7.9,2
			c3.6,0.6,6.5,1.2,8.8,1.9c2.3,0.7,4.3,2,5.9,3.7c1.6,1.7,2.5,4.2,2.5,7.4c0,4.2-1.8,7.5-5.5,10.1c-3.6,2.5-8.6,3.8-14.8,3.8
			C365.7,103.3,362.2,102.8,358.7,101.9z"/>
		<path class="st1" d="M440.6,83.7h-35.1c0.6,3.3,2.2,5.9,4.8,7.8c2.6,1.9,5.8,2.9,9.7,2.9c4.9,0,9-1.6,12.2-4.9l5.6,6.5
			c-2,2.4-4.6,4.2-7.6,5.5c-3.1,1.2-6.5,1.8-10.4,1.8c-4.9,0-9.3-1-13-2.9c-3.7-2-6.6-4.7-8.7-8.2c-2-3.5-3.1-7.4-3.1-11.9
			c0-4.4,1-8.3,3-11.8c2-3.5,4.7-6.2,8.3-8.2c3.5-2,7.5-2.9,11.9-2.9c4.4,0,8.3,1,11.7,2.9c3.4,1.9,6.1,4.6,8.1,8.1
			c1.9,3.5,2.9,7.5,2.9,12.1C440.8,81.3,440.8,82.3,440.6,83.7z M409.7,68.8c-2.3,2-3.7,4.6-4.2,7.9h25.4c-0.4-3.2-1.8-5.9-4.1-7.9
			c-2.3-2-5.1-3-8.6-3C414.8,65.8,412,66.8,409.7,68.8z"/>
		<path class="st1" d="M486.1,99.6c-4.8-2.6-8.5-6.2-11.2-10.8c-2.7-4.6-4.1-9.8-4.1-15.5c0-5.8,1.4-10.9,4.1-15.5
			c2.7-4.6,6.5-8.2,11.3-10.8c4.8-2.6,10.1-3.9,16.1-3.9c4.8,0,9.2,0.8,13.2,2.5c4,1.7,7.3,4.1,10.1,7.3l-7,6.6
			c-4.2-4.6-9.5-6.9-15.7-6.9c-4,0-7.6,0.9-10.8,2.6s-5.7,4.2-7.5,7.3c-1.8,3.1-2.7,6.7-2.7,10.6c0,4,0.9,7.5,2.7,10.7
			c1.8,3.1,4.3,5.6,7.5,7.3s6.8,2.6,10.8,2.6c6.2,0,11.4-2.3,15.7-7l7,6.7c-2.7,3.2-6.1,5.6-10.1,7.3c-4,1.7-8.4,2.5-13.2,2.5
			C496.3,103.5,490.9,102.2,486.1,99.6z"/>
		<path class="st1" d="M574,62.4c3.4,3.3,5.1,8.2,5.1,14.7v25.7h-10.5V78.4c0-3.9-0.9-6.9-2.8-8.8c-1.8-2-4.5-3-7.9-3
			c-3.9,0-6.9,1.2-9.1,3.5c-2.2,2.3-3.4,5.7-3.4,10v22.6H535V40.5h10.5v22.6c1.7-1.8,3.9-3.3,6.4-4.2c2.5-1,5.4-1.5,8.5-1.5
			C566,57.4,570.6,59.1,574,62.4z"/>
		<path class="st1" d="M624.7,62.1c3.5,3.2,5.2,7.9,5.2,14.3v26.2H620v-5.5c-1.3,2-3.1,3.5-5.5,4.5c-2.4,1-5.2,1.6-8.6,1.6
			c-3.4,0-6.3-0.6-8.8-1.7c-2.5-1.1-4.5-2.7-5.8-4.8c-1.4-2-2.1-4.3-2.1-6.9c0-4,1.5-7.3,4.5-9.7c3-2.4,7.7-3.6,14.1-3.6h11.6v-0.7
			c0-3.1-0.9-5.5-2.8-7.2c-1.9-1.7-4.7-2.5-8.3-2.5c-2.5,0-5,0.4-7.4,1.2c-2.4,0.8-4.5,1.9-6.2,3.3l-4.1-7.6
			c2.3-1.8,5.2-3.2,8.5-4.1c3.3-0.9,6.8-1.4,10.5-1.4C616.1,57.4,621.2,59,624.7,62.1z M615.1,93.8c2-1.2,3.5-2.9,4.3-5.2v-5.2
			h-10.8c-6,0-9.1,2-9.1,6c0,1.9,0.8,3.4,2.3,4.5c1.5,1.1,3.6,1.7,6.3,1.7C610.7,95.6,613.1,95,615.1,93.8z"/>
		<path class="st1" d="M670.2,100.3c-1.2,1-2.7,1.8-4.5,2.3c-1.8,0.5-3.6,0.8-5.6,0.8c-4.9,0-8.7-1.3-11.4-3.9
			c-2.7-2.6-4-6.3-4-11.2V66.6h-7.4v-8.4h7.4V48h10.5v10.2h12v8.4h-12v21.3c0,2.2,0.5,3.8,1.6,5c1.1,1.1,2.6,1.7,4.6,1.7
			c2.3,0,4.3-0.6,5.9-1.8L670.2,100.3z"/>
	</g>
</g>
</svg>
